# xmcd
#
# Track frame offsets:
#       150
#       13322
#       29711
#       38166
#       55340
#       69942
#       95409
#       111751
#       138048
#
# Disc length: 2014 seconds
#
# Revision: 0
# Processed by: cddbd v1.5.1PL0 Copyright (c) Steve Scherf et al.
# Submitted via: CD-DA_X-Tractor v0.24
#
DISCID=7607dc09
DTITLE=The Blues Box - Midnight Blues
DYEAR=1900
DGENRE=blues
TTITLE0=Junior Wells - Snatch It Back And Hold It
TTITLE1=Luther Allison - Dust My Room
TTITLE2=Louis Meyers - That's Alright 
TTITLE3=Dave Specter - That's How Strong My Love Is 
TTITLE4=Little Walter - Muskadine Blues
TTITLE5=Luther Allison - The Sky Is Crying
TTITLE6=Louis Meyers - Top O' The Harp
TTITLE7=Dave Specter - I'm On The Outside Looking In
TTITLE8=Little Walter - Moonshine Blues
EXTD=
EXTT0=
EXTT1=
EXTT2=
EXTT3=
EXTT4=
EXTT5=
EXTT6=
EXTT7=
EXTT8=
PLAYORDER=
